<svg xmlns="http://www.w3.org/2000/svg" viewBox="0 0 720 480" fill="none">
  <defs>
    <linearGradient id="tbg" x1="0" y1="0" x2="0" y2="480" gradientUnits="userSpaceOnUse">
      <stop offset="0%" stop-color="#1e1e2e"/>
      <stop offset="100%" stop-color="#181825"/>
    </linearGradient>
  </defs>
  <!-- Window chrome -->
  <rect width="720" height="480" rx="12" fill="url(#tbg)"/>
  <rect width="720" height="36" rx="12" fill="#313244"/>
  <rect y="24" width="720" height="12" fill="#313244"/>
  <circle cx="20" cy="18" r="6" fill="#f38ba8"/>
  <circle cx="40" cy="18" r="6" fill="#f9e2af"/>
  <circle cx="60" cy="18" r="6" fill="#a6e3a1"/>
  <text x="320" y="23" font-family="ui-monospace, 'SF Mono', monospace" font-size="12" fill="#a6adc8" text-anchor="middle">founder-skills</text>

  <!-- Terminal content -->
  <g font-family="ui-monospace, 'SF Mono', 'Cascadia Code', monospace" font-size="14">
    <!-- Prompt 1 -->
    <text x="24" y="70" fill="#a6adc8">~</text>
    <text x="42" y="70" fill="#89b4fa">$</text>
    <text x="58" y="70" fill="#f9e2af">/founder</text>
    <text x="138" y="70" fill="#cdd6f4"> We're doing $5M ARR but growth slowed to 1.5x</text>

    <!-- Response -->
    <text x="24" y="100" fill="#a6e3a1">Diagnosing:</text>
    <text x="130" y="100" fill="#cdd6f4">Growth stall at $5M ARR — classic Series A plateau</text>

    <text x="24" y="130" fill="#a6e3a1">Selecting:</text>
    <text x="24" y="155" fill="#cdd6f4">  1. </text><text x="55" y="155" fill="#f9e2af">Four Fits Framework</text><text x="235" y="155" fill="#6c7086"> — which fit is broken?</text>
    <text x="24" y="175" fill="#cdd6f4">  2. </text><text x="55" y="175" fill="#f9e2af">Growth Accounting</text><text x="222" y="175" fill="#6c7086"> — where is growth leaking?</text>
    <text x="24" y="195" fill="#cdd6f4">  3. </text><text x="55" y="195" fill="#f9e2af">Unit Economics</text><text x="195" y="195" fill="#6c7086"> — is growth worth accelerating?</text>

    <text x="24" y="225" fill="#a6e3a1">Applying Four Fits Framework...</text>

    <text x="24" y="255" fill="#f5c2e7">## Market-Product Fit</text>
    <text x="24" y="280" fill="#cdd6f4">Your ICP shifted. Early adopters were SMB but your</text>
    <text x="24" y="300" fill="#cdd6f4">pricing ($500/mo) and feature set now attract mid-market.</text>
    <text x="24" y="320" fill="#cdd6f4">This creates a </text><text x="147" y="320" fill="#f38ba8">channel-model mismatch</text><text x="360" y="320" fill="#cdd6f4">: you're</text>
    <text x="24" y="340" fill="#cdd6f4">running PLG for a segment that needs sales touches.</text>

    <text x="24" y="370" fill="#f5c2e7">## Load-Bearing Assumption</text>
    <text x="24" y="395" fill="#f9e2af">If churn is product-driven (not price-driven),</text>
    <text x="24" y="415" fill="#f9e2af">this entire analysis changes.</text>
    <text x="24" y="440" fill="#a6e3a1">Validation:</text>
    <text x="120" y="440" fill="#cdd6f4">Interview 10 churned customers this week.</text>

    <!-- Cursor -->
    <rect x="24" y="455" width="8" height="16" fill="#f9e2af" opacity="0.8">
      <animate attributeName="opacity" values="0.8;0;0.8" dur="1.2s" repeatCount="indefinite"/>
    </rect>
  </g>
</svg>
